# xmcd CD database file
#
# Track frame offsets:
#	150
#	26895
#	46525
#
# Disc length: 812 seconds
#
# Revision: 0
# Processed by: cddbd v1.5PL3 Copyright (c) Steve Scherf et al.
# Submitted via: CDex 1.50
#
DISCID=1a032a03
DTITLE=Rip Slyme - Dandelion
DYEAR=2004
DGENRE=Hip-Hop
TTITLE0=Dandelion
TTITLE1=ジグソウル
TTITLE2=Twilight
EXTD=YEAR: 2004
EXTT0=
EXTT1=
EXTT2=
PLAYORDER=
